# xmcd
#
# Track frame offsets:
# 150
# 12755
# 26145
# 43282
# 54395
# 62980
# 74555
# 87467
# 99042
# 108667
# 119460
# 129807
#
# Disc length: 1973 seconds
#
#
# Revision: 1
# Processed by: cddbd v1.5.1PL0 Copyright (c) Steve Scherf et al.
# Submitted via: FreeRIP 2.70 
#
DISCID=a507b30c
DTITLE=Various Artist - MPB Compositores Vol 30 - Geraldo Pereira
DYEAR=1034
DGENRE=misc
TTITLE0=Zizi Possi - Escurinha
TTITLE1=Roberto Silva - Escurinho
TTITLE2=Cláudia e Zimbo Trio - Falsa Baiana
TTITLE3=Cristina - Golpe Errado
TTITLE4=Jackson Do Pandeiro - Pisei Num Despacho
TTITLE5=Batista De Souza - Onde Está a Florisbela
TTITLE6=Jorge Veiga - Acertei No Milhar
TTITLE7=Monarco - Ministério Da Economia
TTITLE8=Grupo Tarsis - Bolinha De Papel
TTITLE9=Vânia Carvalho - Pedro Do Pedregulho
TTITLE10=Cristina - Vai Que Depois Eu Vou
TTITLE11=Ciro Monteiro - Escurinho, Falsa Baiana e Que Samba Bom
EXTD=
EXTT0=
EXTT1=
EXTT2=
EXTT3=
EXTT4=
EXTT5=
EXTT6=
EXTT7=
EXTT8=
EXTT9=
EXTT10=
EXTT11=
PLAYORDER=
